<?xml version="1.0" encoding="utf-8"?>
<!-- Generator: Adobe Illustrator 18.0.0, SVG Export Plug-In . SVG Version: 6.00 Build 0)  -->
<!DOCTYPE svg PUBLIC "-//W3C//DTD SVG 1.1//EN" "http://www.w3.org/Graphics/SVG/1.1/DTD/svg11.dtd">
<svg version="1.1" id="Layer_1" xmlns="http://www.w3.org/2000/svg" xmlns:xlink="http://www.w3.org/1999/xlink" x="0px" y="0px"
	 viewBox="365.2 451.8 388.1 61.8" enable-background="new 365.2 451.8 388.1 61.8" xml:space="preserve">
<g>
	<g>
		<defs>
			<rect id="SVGID_1_" x="365.2" y="451.8" width="377.2" height="61.8"/>
		</defs>
		<clipPath id="SVGID_2_">
			<use xlink:href="#SVGID_1_"  overflow="visible"/>
		</clipPath>
		<path clip-path="url(#SVGID_2_)" fill="#58595B" d="M729.4,512.8c2.6-0.5,4.8-1.4,6.7-2.6c1.9-1.2,3.4-2.8,4.5-4.6
			s1.7-4.1,1.7-6.7c0-3-0.6-5.4-1.7-7.3c-1.1-1.9-2.5-3.3-4.3-4.3c-1.8-1-3.6-1.8-5.7-2.2s-4.2-0.8-6.2-1.1
			c-1.2-0.2-2.4-0.3-3.4-0.5c-1.1-0.2-2-0.3-2.9-0.7c-0.8-0.2-1.4-0.6-1.9-1c-0.4-0.4-0.7-0.9-0.7-1.5c0-1.1,0.4-2,1.4-2.4
			c0.9-0.4,2-0.8,3.2-0.8c1.3,0,2.4,0.2,3.5,0.8c1,0.4,1.6,1.5,1.9,3.2h15.1c-0.3-4.2-2.1-7.5-5.5-9.8c-3.4-2.3-8.4-3.5-15-3.5
			c-2.6,0-5.2,0.3-7.5,0.9c-2.3,0.6-4.4,1.4-6.3,2.6c-1.8,1.2-3.2,2.6-4.3,4.4c-1,1.8-1.5,3.6-1.5,5.8c0,2.8,0.4,5,1.4,6.6
			c1,1.6,2.2,3.1,3.6,4c1.5,1,3.2,1.6,5.1,2.2c1.9,0.4,3.7,0.8,5.5,1.1c1.4,0.2,2.8,0.4,4,0.7c1.3,0.2,2.4,0.4,3.3,0.8
			c1,0.3,1.8,0.8,2.3,1.3c0.6,0.6,0.9,1.2,0.9,2.2c0,1.3-0.5,2.2-1.5,2.9c-1,0.6-2.3,0.9-4,0.9c-2,0-3.6-0.4-4.7-1.4
			c-1.1-1-1.7-2.4-1.9-4.2h-15.3c0,2.5,0.5,4.6,1.6,6.6c1.1,1.9,2.5,3.5,4.5,4.8c1.9,1.3,4.2,2.3,6.8,3c2.6,0.7,5.6,1,8.8,1
			C724.1,513.6,726.9,513.3,729.4,512.8 M694.3,512.2v-43.1h-15.9v23.2c0,2.4-0.6,4.2-1.8,5.6c-1.1,1.3-2.8,2-4.8,2
			c-3.8,0-5.7-2.3-5.7-6.8v-24h-16v27.8c0,2.5,0.3,4.7,1,6.7c0.7,2,1.7,3.7,2.9,5.3c1.3,1.4,2.9,2.6,4.7,3.4
			c1.9,0.8,4.2,1.2,6.7,1.2c3,0,5.6-0.5,7.7-1.8c2.2-1.2,4.1-2.9,5.7-5.2h0.2v5.6L694.3,512.2L694.3,512.2z M600.5,499.6
			c-1.2-2.2-1.8-5.2-1.8-8.8s0.6-6.6,1.8-8.8c1.2-2.2,3-3.3,5.5-3.3s4.3,1.1,5.6,3.3c1.2,2.2,1.9,5.2,1.9,8.8s-0.7,6.6-1.9,8.8
			c-1.2,2.2-3.1,3.3-5.6,3.3C603.5,502.9,601.6,501.8,600.5,499.6 M615.9,511.8c2.9-1.1,5.4-2.8,7.4-4.7s3.6-4.4,4.7-7.3
			c1.1-2.8,1.6-5.8,1.6-9.1s-0.5-6.3-1.6-9.1c-1.1-2.8-2.6-5.2-4.7-7.3c-2-2.1-4.5-3.6-7.4-4.8c-2.9-1.1-6.2-1.8-9.8-1.8
			c-3.6,0-6.8,0.6-9.8,1.8c-2.9,1.2-5.4,2.8-7.5,4.8c-2.1,2.1-3.6,4.5-4.7,7.3c-1.1,2.8-1.7,5.8-1.7,9.1s0.5,6.3,1.7,9.1
			c1.1,2.8,2.8,5.2,4.7,7.3c2.1,2,4.5,3.6,7.5,4.7c2.9,1.1,6.2,1.8,9.8,1.8C609.7,513.5,612.9,513,615.9,511.8 M550,478.8h5.6v21
			c0,2.6,0.3,4.7,1,6.4c0.7,1.6,1.6,3.1,3,4.1c1.3,1,3,1.8,5,2.2s4.3,0.7,6.9,0.7c1.4,0,2.9-0.1,4.1-0.3c1.3-0.2,2.5-0.4,3.7-0.8
			v-11.8c-1.2,0.1-2.3,0.1-3.3,0.1c-1,0-1.9-0.2-2.5-0.4s-1.2-0.7-1.6-1.3c-0.3-0.5-0.6-1.4-0.6-2.5v-17.5h8.1v-9.7h-8.1v-14h-15.7
			v14H550V478.8z M514.6,512.2h18L516.6,485l14.4-15.8H513l-10.3,12.9v-30.1H487v60.4h15.7v-11.8l3.3-3.6L514.6,512.2z M463.1,512.2
			h16.4v-60.4h-16.4V512.2z M429.4,502.9c-1-0.7-1.5-1.6-1.5-3.2c0-1.3,0.4-2.3,1.3-3.1c0.9-0.8,2.4-1.3,4.8-1.9
			c1.3-0.3,2.5-0.6,3.5-0.9c1-0.3,1.9-0.7,2.6-1.1v3.9c0,2.6-0.8,4.4-2.2,5.6c-1.5,1.1-3.2,1.7-5.1,1.7
			C431.6,503.9,430.4,503.5,429.4,502.9 M457.3,512.2v-0.7c-0.7-0.4-1.1-1.2-1.3-2.2s-0.3-2.4-0.3-4.2v-21.6
			c0-5.8-2.2-10.1-6.7-12.9c-1.7-1-3.5-1.8-5.8-2.2c-2.2-0.4-5-0.7-8.4-0.7s-6.4,0.4-8.9,1.2c-2.5,0.8-4.6,2-6.4,3.3
			c-1.6,1.4-3,3.1-3.8,5c-0.9,1.9-1.3,3.9-1.4,6h15.1c0.2-1.5,0.8-2.9,1.6-3.7c0.9-0.9,2.2-1.4,4-1.4s3,0.4,3.6,1.2
			c0.7,0.8,1,1.8,1,3c0,0.7-0.2,1.2-0.5,1.8c-0.3,0.4-1,0.9-1.9,1.3c-0.9,0.4-2.1,0.8-3.6,1c-1.5,0.3-3.4,0.5-5.6,0.8
			c-2.1,0.2-4.1,0.5-5.9,1.1c-1.9,0.5-3.5,1.3-4.9,2.3c-1.4,1-2.5,2.3-3.4,4c-0.9,1.6-1.3,3.6-1.3,5.9c0,2.1,0.3,4,1.1,5.6
			s1.8,3,3,4c1.3,1.1,2.8,1.9,4.5,2.4c1.8,0.5,3.6,0.9,5.7,0.9c2.9,0,5.3-0.4,7.5-1.4c2.2-1,4.1-2.4,5.5-4.4h0.2
			c0.2,1.2,0.3,2.1,0.7,2.9c0.2,0.8,0.5,1.3,0.8,1.9h16.2V512.2z M365.2,466.9h17v45.3h17.6v-45.3h17.3v-15.1h-51.9V466.9z"/>
	</g>
</g>
</svg>
