<?xml version="1.0" encoding="utf-8"?>
<!-- Generator: Adobe Illustrator 19.2.1, SVG Export Plug-In . SVG Version: 6.00 Build 0)  -->
<svg version="1.1" id="Layer_1" xmlns="http://www.w3.org/2000/svg" xmlns:xlink="http://www.w3.org/1999/xlink" x="0px" y="0px"
	 viewBox="0 0 1000 500" style="enable-background:new 0 0 1000 500;" xml:space="preserve">
<style type="text/css">
	.st0{clip-path:url(#SVGID_2_);fill:#FFFFFF;}
</style>
<g>
	<defs>
		<rect id="SVGID_1_" x="199" y="85" width="601.8" height="330"/>
	</defs>
	<clipPath id="SVGID_2_">
		<use xlink:href="#SVGID_1_"  style="overflow:visible;"/>
	</clipPath>
	<path class="st0" d="M428,246.6c1.2,1.2,1.9,2.9,2.2,5.1h-13.5c0.4-2.1,1.2-3.9,2.3-5.1c1.1-1.3,2.7-1.9,4.7-1.9
		C425.4,244.8,426.9,245.4,428,246.6 M430.7,275.8c2-0.5,3.9-1.4,5.7-2.5c1.9-1.2,3.6-2.7,4.9-4.3c1.3-1.6,2.2-3.4,2.6-5.1h-14.1
		c-1.1,1.9-2.9,2.9-5.5,2.9c-2.2,0-3.9-0.6-5.2-1.9c-1.3-1.3-2.1-3.1-2.5-5.4h27.9c0.1-3.9-0.4-7.5-1.5-10.8
		c-1.1-3.3-2.9-6.1-5.3-8.3c-1.8-1.6-3.9-2.9-6.3-3.9c-2.4-0.9-5.1-1.4-8.2-1.4c-3.1,0-5.9,0.5-8.4,1.6c-2.6,1.1-4.8,2.5-6.6,4.4
		c-1.8,1.9-3.3,4.1-4.3,6.6c-1,2.5-1.5,5.3-1.5,8.3c0,3,0.5,5.8,1.5,8.3c1,2.5,2.5,4.7,4.4,6.6c1.9,1.8,4.1,3.3,6.8,4.3
		c2.6,1,5.5,1.5,8.8,1.5C426.4,276.6,428.7,276.3,430.7,275.8 M387.1,236.3h-13.8v39.2h14.5v-16c0-4.5,1.2-7.6,3.5-9.5
		c2.4-1.9,5.7-2.4,10-1.7h0.3v-12.4c-0.5-0.3-1.3-0.4-2.4-0.4c-2.5,0-4.7,0.5-6.6,1.5c-1.9,1-3.7,2.8-5.3,5.2h-0.2V236.3z
		 M344.2,267c-0.9-0.6-1.4-1.5-1.4-2.9c0-1.2,0.4-2.1,1.2-2.8c0.8-0.7,2.2-1.2,4.4-1.7c1.2-0.3,2.3-0.5,3.2-0.8
		c0.9-0.3,1.7-0.6,2.4-1v3.5c0,2.4-0.7,4-2,5.1c-1.4,1-2.9,1.5-4.6,1.5C346.2,267.9,345.1,267.6,344.2,267 M369.5,275.5v-0.6
		c-0.6-0.4-1-1.1-1.2-2c-0.2-0.9-0.3-2.2-0.3-3.8v-19.6c0-5.3-2-9.2-6.1-11.7c-1.5-0.9-3.2-1.6-5.3-2c-2-0.4-4.5-0.6-7.6-0.6
		c-3.1,0-5.8,0.4-8.1,1.1c-2.3,0.7-4.2,1.8-5.8,3c-1.5,1.3-2.7,2.8-3.5,4.5c-0.8,1.7-1.2,3.5-1.3,5.5h13.7c0.2-1.4,0.7-2.6,1.5-3.4
		c0.8-0.8,2-1.3,3.6-1.3c1.6,0,2.7,0.4,3.3,1.1c0.6,0.7,0.9,1.6,0.9,2.7c0,0.6-0.2,1.1-0.5,1.6c-0.3,0.4-0.9,0.8-1.7,1.2
		c-0.8,0.4-1.9,0.7-3.3,0.9c-1.4,0.3-3.1,0.5-5.1,0.7c-1.9,0.2-3.7,0.5-5.4,1c-1.7,0.5-3.2,1.2-4.5,2.1c-1.3,0.9-2.3,2.1-3.1,3.6
		c-0.8,1.5-1.2,3.3-1.2,5.4c0,1.9,0.3,3.6,1,5.1c0.7,1.5,1.6,2.7,2.7,3.6c1.2,1,2.5,1.7,4.1,2.2c1.6,0.5,3.3,0.8,5.2,0.8
		c2.6,0,4.8-0.4,6.8-1.3c2-0.9,3.7-2.2,5-4h0.2c0.2,1.1,0.3,1.9,0.6,2.6c0.2,0.7,0.5,1.2,0.7,1.7H369.5z M295.1,246.6
		c1.2,1.2,1.9,2.9,2.2,5.1h-13.5c0.4-2.1,1.2-3.9,2.3-5.1c1.1-1.3,2.7-1.9,4.7-1.9C292.5,244.8,293.9,245.4,295.1,246.6
		 M297.8,275.8c2-0.5,3.9-1.4,5.7-2.5c1.9-1.2,3.6-2.7,4.9-4.3s2.2-3.4,2.6-5.1h-14.1c-1.1,1.9-2.9,2.9-5.5,2.9
		c-2.2,0-3.9-0.6-5.2-1.9c-1.3-1.3-2.1-3.1-2.5-5.4h27.9c0.1-3.9-0.4-7.5-1.5-10.8c-1.1-3.3-2.9-6.1-5.3-8.3
		c-1.8-1.6-3.9-2.9-6.3-3.9c-2.4-0.9-5.1-1.4-8.2-1.4c-3.1,0-5.9,0.5-8.4,1.6c-2.6,1.1-4.8,2.5-6.6,4.4c-1.8,1.9-3.3,4.1-4.3,6.6
		c-1,2.5-1.5,5.3-1.5,8.3c0,3,0.5,5.8,1.5,8.3c1,2.5,2.5,4.7,4.4,6.6c1.9,1.8,4.1,3.3,6.8,4.3c2.6,1,5.5,1.5,8.8,1.5
		C293.5,276.6,295.8,276.3,297.8,275.8 M213.1,275.5h16.4l4.8-23.3c0.3-1.2,0.5-2.4,0.7-3.7c0.2-1.3,0.4-2.4,0.6-3.5
		c0.2-1.2,0.4-2.4,0.6-3.5h0.2c0.2,1.1,0.4,2.3,0.6,3.5c0.2,1,0.4,2.2,0.6,3.5c0.2,1.3,0.4,2.5,0.7,3.7l4.9,23.3h16.2l14.4-54.9
		h-16.4l-4,18.7c-0.4,1.5-0.7,3.2-1,5c-0.3,1.8-0.6,3.5-0.8,5c-0.3,1.8-0.6,3.6-0.9,5.4h-0.2c-0.3-1.6-0.5-3.2-0.8-4.9
		c-0.3-1.4-0.6-3-0.9-4.7c-0.3-1.7-0.7-3.4-1-5l-4.2-19.4h-14.5l-4.2,19.6c-0.4,1.6-0.7,3.2-1,4.9c-0.3,1.7-0.6,3.3-0.9,4.7
		c-0.3,1.7-0.6,3.3-0.9,4.9h-0.2c-0.3-1.8-0.5-3.6-0.8-5.4c-0.3-1.5-0.6-3.2-0.9-5c-0.3-1.8-0.7-3.4-1-4.9l-4-18.8h-16L213.1,275.5z
		"/>
	<path class="st0" d="M534.1,246.1c1.1-1.1,1.6-2.5,1.6-4.3c0-1.7-0.5-3.1-1.6-4.1c-1.1-1-2.6-1.5-4.5-1.5h-8v11.6h8.1
		C531.6,247.8,533,247.2,534.1,246.1 M619.9,266.5c1.3-1,1.9-2.5,1.9-4.7v-3.2c-0.7,0.3-1.4,0.6-2.3,0.9c-0.8,0.3-1.8,0.6-3,0.8
		c-2,0.4-3.4,1-4.1,1.6c-0.7,0.6-1.1,1.5-1.1,2.6c0,1.2,0.4,2.1,1.3,2.7c0.9,0.6,1.8,0.8,2.9,0.8C617.2,268,618.7,267.5,619.9,266.5
		 M666.3,263.4c1.1-1.7,1.6-4,1.6-6.9c0-2.9-0.5-5.2-1.6-6.9c-1.1-1.7-2.6-2.5-4.7-2.5c-2.1,0-3.8,0.9-5,2.7c-1.2,1.8-1.9,4-1.9,6.7
		c0,2.7,0.6,5,1.9,6.8c1.2,1.8,2.9,2.7,5,2.7C663.7,265.9,665.2,265.1,666.3,263.4 M718.9,252.9h12.6c-0.3-2.1-1-3.7-2-4.8
		c-1.1-1.1-2.4-1.7-4.1-1.7c-1.9,0-3.3,0.6-4.4,1.8C720,249.3,719.3,250.9,718.9,252.9 M765,268.9c0,3.9-3.1,7-7,7c-3.9,0-7-3.1-7-7
		c0-3.9,3.1-7,7-7C761.9,261.8,765,265,765,268.9 M745.1,260.1h-26.1c0.4,2.2,1.2,3.8,2.3,5c1.2,1.2,2.8,1.8,4.8,1.8
		c2.4,0,4.1-0.9,5.1-2.7h13.1c-0.4,1.7-1.2,3.3-2.4,4.8c-1.2,1.5-2.7,2.9-4.6,4c-1.7,1.1-3.5,1.9-5.4,2.4c-1.9,0.5-4,0.7-6.4,0.7
		c-3,0-5.7-0.5-8.2-1.4c-2.4-1-4.5-2.3-6.3-4c-1.8-1.7-3.1-3.8-4.1-6.1c-1-2.4-1.4-5-1.4-7.8c0-2.8,0.5-5.4,1.4-7.7
		c1-2.4,2.3-4.4,4-6.2c1.7-1.7,3.8-3.1,6.2-4.1c2.4-1,5-1.5,7.9-1.5c2.9,0,5.4,0.4,7.6,1.3c2.2,0.9,4.2,2.1,5.9,3.6
		c2.2,2.1,3.9,4.6,5,7.8C744.7,253,745.2,256.4,745.1,260.1 M700.6,275.1h-13.9v-51.4h13.9V275.1z M681.7,256.7
		c0,6.3-1.4,11.1-4.2,14.5c-2.8,3.4-6.6,5.1-11.5,5.1c-2.3,0-4.5-0.5-6.5-1.4c-2-0.9-3.6-2.5-4.9-4.6h-0.1v4.7h-12.9v-51.4h13.6
		v18.5h0.2c1.3-1.6,2.8-2.9,4.5-3.7c1.7-0.8,3.8-1.3,6.3-1.3c2.4,0,4.6,0.5,6.6,1.5c1.9,1,3.6,2.4,4.9,4.2c1.3,1.7,2.3,3.8,3,6.2
		C681.3,251.5,681.7,254,681.7,256.7 M635,275.1h-13.2l0-4h-0.1c-1.2,1.7-2.8,2.9-4.7,3.7c-1.9,0.8-4,1.2-6.4,1.2
		c-1.8,0-3.4-0.2-4.9-0.7c-1.5-0.5-2.8-1.2-3.8-2.1c-1.1-0.9-1.9-2-2.5-3.4c-0.6-1.4-0.9-3-0.9-4.8c0-2,0.4-3.7,1.1-5.1
		c0.7-1.4,1.7-2.5,2.9-3.3c1.2-0.9,2.6-1.5,4.2-1.9c1.6-0.4,3.3-0.7,5.1-0.9c1.9-0.2,3.5-0.4,4.8-0.6c1.3-0.2,2.3-0.5,3.1-0.9
		c0.8-0.3,1.3-0.7,1.6-1.1c0.3-0.4,0.4-0.9,0.4-1.5c0-1-0.3-1.8-0.8-2.5c-0.6-0.7-1.6-1-3.1-1c-1.5,0-2.6,0.4-3.4,1.2
		c-0.8,0.8-1.2,1.9-1.4,3.2h-12.9c0-1.8,0.4-3.5,1.2-5.1c0.7-1.6,1.8-3,3.3-4.2c1.4-1.2,3.2-2.1,5.4-2.8c2.2-0.7,4.7-1,7.5-1
		c2.8,0,5.2,0.2,7.1,0.6c1.9,0.4,3.5,1,4.9,1.9c3.8,2.3,5.7,6,5.7,11V269C635,270.6,635,275.1,635,275.1 M593.3,275.1h-13.6v-20.4
		c0-1.9-0.4-3.4-1.2-4.6s-2.1-1.7-3.9-1.7c-1.7,0-3.1,0.7-4.1,2c-1,1.3-1.5,3-1.5,5v19.8h-13.6v-51.4h13.6v18.9h0.2
		c1.4-1.6,2.9-2.9,4.7-3.8c1.7-1,3.9-1.5,6.5-1.5c4.3,0,7.5,1.3,9.6,3.9c2.2,2.6,3.2,6,3.2,10.2V275.1z M550.7,242
		c0,2.5-0.4,4.8-1.3,6.9c-0.9,2.1-2.1,3.9-3.7,5.5c-1.6,1.6-3.4,2.8-5.6,3.7c-2.2,0.9-4.5,1.3-7.1,1.3h-11.3v15.7h-15v-51.4h23.6
		c3.3,0,6.2,0.4,8.5,1.2c2.4,0.8,4.4,2,6.1,3.5c1.8,1.6,3.2,3.6,4.2,5.9C550.2,236.6,550.7,239.2,550.7,242 M800.8,250
		c0-91.1-73.9-165-165-165s-165,73.9-165,165s73.9,165,165,165S800.8,341.1,800.8,250"/>
</g>
</svg>
