<?xml version="1.0" encoding="utf-8"?>
<!-- Generator: Adobe Illustrator 18.0.0, SVG Export Plug-In . SVG Version: 6.00 Build 0)  -->
<!DOCTYPE svg PUBLIC "-//W3C//DTD SVG 1.1//EN" "http://www.w3.org/Graphics/SVG/1.1/DTD/svg11.dtd">
<svg version="1.1" id="Layer_1" xmlns="http://www.w3.org/2000/svg" xmlns:xlink="http://www.w3.org/1999/xlink" x="0px" y="0px"
	 viewBox="218.9 318.9 665.7 363" enable-background="new 218.9 318.9 665.7 363" xml:space="preserve">
<g>
	<g>
		<defs>
			<rect id="SVGID_1_" x="218.9" y="318.9" width="662" height="363"/>
		</defs>
		<clipPath id="SVGID_2_">
			<use xlink:href="#SVGID_1_"  overflow="visible"/>
		</clipPath>
		<path clip-path="url(#SVGID_2_)" fill="#FFFFFF" d="M470.8,496.7c1.3,1.3,2.1,3.2,2.4,5.6h-14.9c0.4-2.3,1.3-4.3,2.5-5.6
			c1.2-1.4,3-2.1,5.2-2.1C467.9,494.7,469.6,495.4,470.8,496.7 M473.8,528.8c2.2-0.5,4.3-1.5,6.3-2.8c2.1-1.3,4-3,5.4-4.7
			c1.4-1.8,2.4-3.7,2.9-5.6h-15.5c-1.2,2.1-3.2,3.2-6,3.2c-2.4,0-4.3-0.7-5.7-2.1c-1.4-1.4-2.3-3.4-2.8-5.9H489
			c0.1-4.3-0.4-8.2-1.6-11.9c-1.2-3.6-3.2-6.7-5.8-9.1c-2-1.8-4.3-3.2-6.9-4.3c-2.6-1-5.6-1.5-9-1.5s-6.5,0.5-9.2,1.8
			c-2.9,1.2-5.3,2.8-7.3,4.8c-2,2.1-3.6,4.5-4.7,7.3s-1.6,5.8-1.6,9.1s0.5,6.4,1.6,9.1s2.8,5.2,4.8,7.3c2.1,2,4.5,3.6,7.5,4.7
			c2.9,1.1,6.1,1.7,9.7,1.7C469,529.7,471.6,529.4,473.8,528.8 M425.8,485.4h-15.2v43.1h16v-17.6c0-5,1.3-8.4,3.8-10.5
			c2.6-2.1,6.3-2.6,11-1.9h0.3v-13.6c-0.5-0.3-1.4-0.4-2.6-0.4c-2.8,0-5.2,0.5-7.3,1.6s-4.1,3.1-5.8,5.7h-0.2V485.4z M378.6,519.1
			c-1-0.7-1.5-1.7-1.5-3.2c0-1.3,0.4-2.3,1.3-3.1c0.9-0.8,2.4-1.3,4.8-1.9c1.3-0.3,2.5-0.5,3.5-0.9s1.9-0.7,2.6-1.1v3.9
			c0,2.6-0.8,4.4-2.2,5.6c-1.5,1.1-3.2,1.6-5.1,1.6C380.8,520.1,379.6,519.8,378.6,519.1 M406.5,528.5v-0.7
			c-0.7-0.4-1.1-1.2-1.3-2.2c-0.2-1-0.3-2.4-0.3-4.2v-21.6c0-5.8-2.2-10.1-6.7-12.9c-1.6-1-3.5-1.8-5.8-2.2
			c-2.2-0.4-4.9-0.7-8.4-0.7s-6.4,0.4-8.9,1.2c-2.5,0.8-4.6,2-6.4,3.3c-1.6,1.4-3,3.1-3.9,4.9c-0.9,1.9-1.3,3.9-1.4,6.1h15.1
			c0.2-1.5,0.8-2.9,1.6-3.7c0.9-0.9,2.2-1.4,4-1.4c1.8,0,3,0.4,3.6,1.2c0.7,0.8,1,1.8,1,3c0,0.7-0.2,1.2-0.5,1.8
			c-0.3,0.4-1,0.9-1.9,1.3c-0.9,0.4-2.1,0.8-3.6,1c-1.5,0.3-3.4,0.6-5.6,0.8c-2.1,0.2-4.1,0.5-5.9,1.1c-1.9,0.6-3.5,1.3-4.9,2.3
			c-1.4,1-2.5,2.3-3.4,4c-0.9,1.6-1.3,3.6-1.3,5.9c0,2.1,0.3,4,1.1,5.6s1.8,3,3,4c1.3,1.1,2.8,1.9,4.5,2.4c1.8,0.6,3.6,0.9,5.7,0.9
			c2.9,0,5.3-0.4,7.5-1.4s4.1-2.4,5.5-4.4h0.2c0.2,1.2,0.3,2.1,0.7,2.9c0.2,0.8,0.6,1.3,0.8,1.9h16.2V528.5z M324.6,496.7
			c1.3,1.3,2.1,3.2,2.4,5.6h-14.9c0.4-2.3,1.3-4.3,2.5-5.6c1.2-1.4,3-2.1,5.2-2.1C321.8,494.7,323.3,495.4,324.6,496.7 M327.6,528.8
			c2.2-0.5,4.3-1.5,6.3-2.8c2.1-1.3,4-3,5.4-4.7c1.4-1.8,2.4-3.7,2.9-5.6h-15.5c-1.2,2.1-3.2,3.2-6,3.2c-2.4,0-4.3-0.7-5.7-2.1
			c-1.4-1.4-2.3-3.4-2.8-5.9h30.7c0.1-4.3-0.4-8.2-1.6-11.9c-1.2-3.6-3.2-6.7-5.8-9.1c-2-1.8-4.3-3.2-6.9-4.3c-2.6-1-5.6-1.5-9-1.5
			s-6.5,0.5-9.2,1.8c-2.9,1.2-5.3,2.8-7.3,4.8c-2,2.1-3.6,4.5-4.7,7.3s-1.6,5.8-1.6,9.1s0.5,6.4,1.6,9.1s2.8,5.2,4.8,7.3
			c2.1,2,4.5,3.6,7.5,4.7c2.9,1.1,6.1,1.7,9.7,1.7C322.9,529.7,325.4,529.4,327.6,528.8 M234.4,528.5h18l5.3-25.6
			c0.3-1.3,0.5-2.6,0.8-4.1s0.4-2.6,0.7-3.9c0.2-1.3,0.4-2.6,0.7-3.9h0.2c0.2,1.2,0.4,2.5,0.7,3.9c0.2,1.1,0.4,2.4,0.7,3.9
			c0.2,1.4,0.4,2.8,0.8,4.1l5.4,25.6h17.8l15.8-60.4h-18l-4.4,20.6c-0.4,1.6-0.8,3.5-1.1,5.5c-0.3,2-0.7,3.9-0.9,5.5
			c-0.3,2-0.7,4-1,5.9h-0.2c-0.3-1.8-0.6-3.5-0.9-5.4c-0.3-1.5-0.7-3.3-1-5.2c-0.3-1.9-0.8-3.7-1.1-5.5l-4.6-21.3H252l-4.6,21.6
			c-0.4,1.8-0.8,3.5-1.1,5.4c-0.3,1.9-0.7,3.6-1,5.2c-0.3,1.9-0.7,3.6-1,5.4h-0.2c-0.3-2-0.6-4-0.9-5.9c-0.3-1.7-0.7-3.5-1-5.5
			c-0.3-2-0.8-3.7-1.1-5.4l-4.4-20.7h-17.6L234.4,528.5z"/>
	</g>
	<g>
		<defs>
			<rect id="SVGID_3_" x="218.9" y="318.9" width="662" height="363"/>
		</defs>
		<clipPath id="SVGID_4_">
			<use xlink:href="#SVGID_3_"  overflow="visible"/>
		</clipPath>
		<path clip-path="url(#SVGID_4_)" fill="#FFFFFF" d="M587.5,496.2c1.2-1.2,1.8-2.8,1.8-4.7c0-1.9-0.5-3.4-1.8-4.5
			c-1.2-1.1-2.9-1.6-5-1.6h-8.8V498h8.9C584.8,498,586.3,497.4,587.5,496.2 M681.9,518.6c1.4-1.1,2.1-2.8,2.1-5.2v-3.5
			c-0.8,0.3-1.5,0.7-2.5,1c-0.9,0.3-2,0.7-3.3,0.9c-2.2,0.4-3.7,1.1-4.5,1.8c-0.8,0.7-1.2,1.7-1.2,2.9c0,1.3,0.4,2.3,1.4,3
			c1,0.7,2,0.9,3.2,0.9C678.9,520.2,680.6,519.7,681.9,518.6 M732.9,515.2c1.2-1.9,1.8-4.4,1.8-7.6c0-3.2-0.6-5.7-1.8-7.6
			s-2.9-2.8-5.2-2.8s-4.2,1-5.5,3c-1.3,2-2.1,4.4-2.1,7.4c0,3,0.7,5.5,2.1,7.5c1.3,2,3.2,3,5.5,3
			C730.1,517.9,731.7,517.1,732.9,515.2 M790.8,503.6h13.9c-0.3-2.3-1.1-4.1-2.2-5.3c-1.2-1.2-2.6-1.9-4.5-1.9c-2.1,0-3.6,0.7-4.8,2
			C792,499.7,791.2,501.4,790.8,503.6 M841.5,521.2c0,4.3-3.4,7.7-7.7,7.7c-4.3,0-7.7-3.4-7.7-7.7c0-4.3,3.4-7.7,7.7-7.7
			C838.1,513.4,841.5,516.9,841.5,521.2 M819.6,511.6h-28.7c0.4,2.4,1.3,4.2,2.5,5.5c1.3,1.3,3.1,2,5.3,2c2.6,0,4.5-1,5.6-3h14.4
			c-0.4,1.9-1.3,3.6-2.6,5.3c-1.3,1.7-3,3.2-5.1,4.4c-1.9,1.2-3.9,2.1-5.9,2.6c-2.1,0.6-4.4,0.8-7,0.8c-3.3,0-6.3-0.5-9-1.5
			c-2.6-1.1-4.9-2.5-6.9-4.4c-2-1.9-3.4-4.2-4.5-6.7c-1.1-2.6-1.5-5.5-1.5-8.6s0.6-5.9,1.5-8.5c1.1-2.6,2.5-4.8,4.4-6.8
			c1.9-1.9,4.2-3.4,6.8-4.5s5.5-1.6,8.7-1.6c3.2,0,5.9,0.4,8.4,1.4c2.4,1,4.6,2.3,6.5,4c2.4,2.3,4.3,5.1,5.5,8.6
			C819.2,503.7,819.7,507.5,819.6,511.6 M770.7,528.1h-15.3v-56.5h15.3V528.1z M749.9,507.8c0,6.9-1.5,12.2-4.6,15.9
			c-3.1,3.7-7.3,5.6-12.6,5.6c-2.5,0-5-0.6-7.2-1.5s-4-2.8-5.4-5.1H720v5.2h-14.2v-56.5h15v20.4h0.2c1.4-1.8,3.1-3.2,4.9-4.1
			c1.9-0.9,4.2-1.4,6.9-1.4c2.6,0,5.1,0.5,7.3,1.6c2.1,1.1,4,2.6,5.4,4.6c1.4,1.9,2.5,4.2,3.3,6.8
			C749.4,502.1,749.9,504.8,749.9,507.8 M698.5,528.1H684v-4.4h-0.1c-1.3,1.9-3.1,3.2-5.2,4.1s-4.4,1.3-7,1.3c-2,0-3.7-0.2-5.4-0.8
			c-1.6-0.5-3.1-1.3-4.2-2.3c-1.2-1-2.1-2.2-2.8-3.7s-1-3.3-1-5.3c0-2.2,0.4-4.1,1.2-5.6c0.8-1.5,1.9-2.8,3.2-3.6
			c1.3-1,2.9-1.6,4.6-2.1c1.8-0.4,3.6-0.8,5.6-1c2.1-0.2,3.9-0.4,5.3-0.7s2.5-0.5,3.4-1c0.9-0.3,1.4-0.8,1.8-1.2
			c0.3-0.4,0.4-1,0.4-1.6c0-1.1-0.3-2-0.9-2.8c-0.7-0.8-1.8-1.1-3.4-1.1c-1.7,0-2.9,0.4-3.7,1.3c-0.9,0.9-1.3,2.1-1.5,3.5h-14.2
			c0-2,0.4-3.8,1.3-5.6c0.8-1.8,2-3.3,3.6-4.6c1.5-1.3,3.5-2.3,5.9-3.1c2.4-0.8,5.2-1.1,8.2-1.1c3.1,0,5.7,0.2,7.8,0.7
			c2.1,0.4,3.8,1.1,5.4,2.1c4.2,2.5,6.3,6.6,6.3,12.1v19.8C698.5,523.1,698.5,528.1,698.5,528.1 M652.6,528.1h-15v-22.4
			c0-2.1-0.4-3.7-1.3-5.1c-0.9-1.3-2.3-1.9-4.3-1.9c-1.9,0-3.4,0.8-4.5,2.2c-1.1,1.4-1.6,3.3-1.6,5.5v21.8h-15v-56.5h15v20.8h0.2
			c1.5-1.8,3.2-3.2,5.2-4.2c1.9-1.1,4.3-1.6,7.2-1.6c4.7,0,8.2,1.4,10.6,4.3c2.4,2.9,3.5,6.6,3.5,11.2v26H652.6z M605.8,491.6
			c0,2.8-0.4,5.3-1.4,7.6s-2.3,4.3-4.1,6c-1.8,1.8-3.7,3.1-6.2,4.1c-2.4,1-5,1.4-7.8,1.4h-12.4v17.3h-16.5v-56.5h26
			c3.6,0,6.8,0.4,9.3,1.3c2.6,0.9,4.8,2.2,6.7,3.9c2,1.8,3.5,4,4.6,6.5C605.2,485.7,605.8,488.6,605.8,491.6 M880.9,500.4
			c0-100.2-81.3-181.5-181.5-181.5s-181.5,81.3-181.5,181.5s81.3,181.5,181.5,181.5S880.9,600.7,880.9,500.4"/>
	</g>
</g>
</svg>
